<?xml version="1.0" encoding="UTF-8" standalone="no"?>
<!-- Created with Inkscape (http://www.inkscape.org/) -->

<svg
   xmlns:dc="http://purl.org/dc/elements/1.1/"
   xmlns:cc="http://creativecommons.org/ns#"
   xmlns:rdf="http://www.w3.org/1999/02/22-rdf-syntax-ns#"
   xmlns:svg="http://www.w3.org/2000/svg"
   xmlns="http://www.w3.org/2000/svg"
   xmlns:sodipodi="http://sodipodi.sourceforge.net/DTD/sodipodi-0.dtd"
   xmlns:inkscape="http://www.inkscape.org/namespaces/inkscape"
   version="1.1"
   id="svg2"
   xml:space="preserve"
   width="4096"
   height="4096"
   viewBox="0 0 4096 4096"
   sodipodi:docname="brother-logo.svg"
   inkscape:export-filename="G:\Users\suitedoalex\sites\brother-logo-0.png"
   inkscape:export-xdpi="96"
   inkscape:export-ydpi="96"
   inkscape:version="0.92.2 (5c3e80d, 2017-08-06)"><metadata
     id="metadata8"><rdf:RDF><cc:Work
         rdf:about=""><dc:format>image/svg+xml</dc:format><dc:type
           rdf:resource="http://purl.org/dc/dcmitype/StillImage" /><dc:title></dc:title></cc:Work></rdf:RDF></metadata><defs
     id="defs6"><clipPath
       clipPathUnits="userSpaceOnUse"
       id="clipPath22"><path
         d="M 0,-8.50394 H 524.40942 V 719.99997 H 0 Z"
         id="path20"
         inkscape:connector-curvature="0"
         style="clip-rule:evenodd" /></clipPath><clipPath
       clipPathUnits="userSpaceOnUse"
       id="clipPath32"><path
         d="M 0,0 H 524.40997 V 745.51202 H 0 Z"
         id="path30"
         inkscape:connector-curvature="0" /></clipPath><clipPath
       clipPathUnits="userSpaceOnUse"
       id="clipPath40"><path
         d="m 0,207.224 v 2.755 c 42.141,20.069 75.753,28.482 103.386,28.482 19.878,0 36.663,-4.347 51.328,-11.833 -1.847,0.021 -3.698,0.032 -5.557,0.032 -45.592,0 -94.64,-6.362 -149.157,-19.436"
         id="path38"
         inkscape:connector-curvature="0" /></clipPath><clipPath
       clipPathUnits="userSpaceOnUse"
       id="clipPath52"><path
         d="M 70.56,395.232 H -0.36 v -104.76 h 70.92 z"
         id="path50"
         inkscape:connector-curvature="0" /></clipPath><clipPath
       clipPathUnits="userSpaceOnUse"
       id="clipPath58"><path
         d="m 409.213,14.588 c -89.734,0 -130.547,55.97 -166.742,111.937 -26.107,40.367 -49.814,80.735 -87.757,100.103 20.538,-0.234 40.385,-1.773 59.729,-4.581 C 294.681,193.262 385.503,149.554 496.945,83.8 505.99,76.745 515.138,69.443 524.41,61.9 V 34.018 C 493.825,23.889 460.071,17.249 422.995,15.012 418.273,14.727 413.687,14.588 409.213,14.588 M 319.305,238.021 C 229.313,239.489 136.094,258.235 1.6598,319.71 1.1118,319.941 0.54837,320.178 0,320.407 v 74.338 c 34.966,-16.544 65.865,-39.749 96.104,-62.953 56.449,-43.314 110.612,-86.628 184.744,-86.625 62.533,0.003 139.276,30.827 243.562,118.473 V 315.2 C 440.448,272.979 376.479,248.436 319.305,238.021"
         id="path56"
         inkscape:connector-curvature="0" /></clipPath><clipPath
       clipPathUnits="userSpaceOnUse"
       id="clipPath64"><path
         d="M 0,745.512 H 524.4 V 0.015 H 0 Z"
         id="path62"
         inkscape:connector-curvature="0" /></clipPath><clipPath
       clipPathUnits="userSpaceOnUse"
       id="clipPath76"><path
         d="m 524.88,395.232 h -36 v -104.76 h 36 z"
         id="path74"
         inkscape:connector-curvature="0" /></clipPath><clipPath
       clipPathUnits="userSpaceOnUse"
       id="clipPath82"><path
         d="m 409.213,14.588 c -89.734,0 -130.547,55.97 -166.742,111.937 -26.107,40.367 -49.814,80.735 -87.757,100.103 20.538,-0.234 40.385,-1.773 59.729,-4.581 C 294.681,193.262 385.503,149.554 496.945,83.8 505.99,76.745 515.138,69.443 524.41,61.9 V 34.018 C 493.825,23.889 460.071,17.249 422.995,15.012 418.273,14.727 413.687,14.588 409.213,14.588 M 319.305,238.021 C 229.313,239.489 136.094,258.235 1.6598,319.71 1.1118,319.941 0.54837,320.178 0,320.407 v 74.338 c 34.966,-16.544 65.865,-39.749 96.104,-62.953 56.449,-43.314 110.612,-86.628 184.744,-86.625 62.533,0.003 139.276,30.827 243.562,118.473 V 315.2 C 440.448,272.979 376.479,248.436 319.305,238.021"
         id="path80"
         inkscape:connector-curvature="0" /></clipPath><clipPath
       clipPathUnits="userSpaceOnUse"
       id="clipPath88"><path
         d="M 0,745.512 H 524.4 V 0.015 H 0 Z"
         id="path86"
         inkscape:connector-curvature="0" /></clipPath><clipPath
       clipPathUnits="userSpaceOnUse"
       id="clipPath100"><path
         d="m 105.48,360.672 h -36 v -104.76 h 36 z"
         id="path98"
         inkscape:connector-curvature="0" /></clipPath><clipPath
       clipPathUnits="userSpaceOnUse"
       id="clipPath106"><path
         d="m 409.213,14.588 c -89.734,0 -130.547,55.97 -166.742,111.937 -26.107,40.367 -49.814,80.735 -87.757,100.103 20.538,-0.234 40.385,-1.773 59.729,-4.581 C 294.681,193.262 385.503,149.554 496.945,83.8 505.99,76.745 515.138,69.443 524.41,61.9 V 34.018 C 493.825,23.889 460.071,17.249 422.995,15.012 418.273,14.727 413.687,14.588 409.213,14.588 M 319.305,238.021 C 229.313,239.489 136.094,258.235 1.6598,319.71 1.1118,319.941 0.54837,320.178 0,320.407 v 74.338 c 34.966,-16.544 65.865,-39.749 96.104,-62.953 56.449,-43.314 110.612,-86.628 184.744,-86.625 62.533,0.003 139.276,30.827 243.562,118.473 V 315.2 C 440.448,272.979 376.479,248.436 319.305,238.021"
         id="path104"
         inkscape:connector-curvature="0" /></clipPath><clipPath
       clipPathUnits="userSpaceOnUse"
       id="clipPath112"><path
         d="M 0,745.512 H 524.4 V 0.015 H 0 Z"
         id="path110"
         inkscape:connector-curvature="0" /></clipPath><clipPath
       clipPathUnits="userSpaceOnUse"
       id="clipPath124"><path
         d="m 489.96,360.672 h -36 v -104.76 h 36 z"
         id="path122"
         inkscape:connector-curvature="0" /></clipPath><clipPath
       clipPathUnits="userSpaceOnUse"
       id="clipPath130"><path
         d="m 409.213,14.588 c -89.734,0 -130.547,55.97 -166.742,111.937 -26.107,40.367 -49.814,80.735 -87.757,100.103 20.538,-0.234 40.385,-1.773 59.729,-4.581 C 294.681,193.262 385.503,149.554 496.945,83.8 505.99,76.745 515.138,69.443 524.41,61.9 V 34.018 C 493.825,23.889 460.071,17.249 422.995,15.012 418.273,14.727 413.687,14.588 409.213,14.588 M 319.305,238.021 C 229.313,239.489 136.094,258.235 1.6598,319.71 1.1118,319.941 0.54837,320.178 0,320.407 v 74.338 c 34.966,-16.544 65.865,-39.749 96.104,-62.953 56.449,-43.314 110.612,-86.628 184.744,-86.625 62.533,0.003 139.276,30.827 243.562,118.473 V 315.2 C 440.448,272.979 376.479,248.436 319.305,238.021"
         id="path128"
         inkscape:connector-curvature="0" /></clipPath><clipPath
       clipPathUnits="userSpaceOnUse"
       id="clipPath136"><path
         d="M 0,745.512 H 524.4 V 0.015 H 0 Z"
         id="path134"
         inkscape:connector-curvature="0" /></clipPath><clipPath
       clipPathUnits="userSpaceOnUse"
       id="clipPath148"><path
         d="M 175.32,326.112 H 104.4 v -70.2 h 70.92 z"
         id="path146"
         inkscape:connector-curvature="0" /></clipPath><clipPath
       clipPathUnits="userSpaceOnUse"
       id="clipPath154"><path
         d="m 409.213,14.588 c -89.734,0 -130.547,55.97 -166.742,111.937 -26.107,40.367 -49.814,80.735 -87.757,100.103 20.538,-0.234 40.385,-1.773 59.729,-4.581 C 294.681,193.262 385.503,149.554 496.945,83.8 505.99,76.745 515.138,69.443 524.41,61.9 V 34.018 C 493.825,23.889 460.071,17.249 422.995,15.012 418.273,14.727 413.687,14.588 409.213,14.588 M 319.305,238.021 C 229.313,239.489 136.094,258.235 1.6598,319.71 1.1118,319.941 0.54837,320.178 0,320.407 v 74.338 c 34.966,-16.544 65.865,-39.749 96.104,-62.953 56.449,-43.314 110.612,-86.628 184.744,-86.625 62.533,0.003 139.276,30.827 243.562,118.473 V 315.2 C 440.448,272.979 376.479,248.436 319.305,238.021"
         id="path152"
         inkscape:connector-curvature="0" /></clipPath><clipPath
       clipPathUnits="userSpaceOnUse"
       id="clipPath160"><path
         d="M 0,745.512 H 524.4 V 0.015 H 0 Z"
         id="path158"
         inkscape:connector-curvature="0" /></clipPath><clipPath
       clipPathUnits="userSpaceOnUse"
       id="clipPath172"><path
         d="m 455.04,326.112 h -36 v -70.2 h 36 z"
         id="path170"
         inkscape:connector-curvature="0" /></clipPath><clipPath
       clipPathUnits="userSpaceOnUse"
       id="clipPath178"><path
         d="m 409.213,14.588 c -89.734,0 -130.547,55.97 -166.742,111.937 -26.107,40.367 -49.814,80.735 -87.757,100.103 20.538,-0.234 40.385,-1.773 59.729,-4.581 C 294.681,193.262 385.503,149.554 496.945,83.8 505.99,76.745 515.138,69.443 524.41,61.9 V 34.018 C 493.825,23.889 460.071,17.249 422.995,15.012 418.273,14.727 413.687,14.588 409.213,14.588 M 319.305,238.021 C 229.313,239.489 136.094,258.235 1.6598,319.71 1.1118,319.941 0.54837,320.178 0,320.407 v 74.338 c 34.966,-16.544 65.865,-39.749 96.104,-62.953 56.449,-43.314 110.612,-86.628 184.744,-86.625 62.533,0.003 139.276,30.827 243.562,118.473 V 315.2 C 440.448,272.979 376.479,248.436 319.305,238.021"
         id="path176"
         inkscape:connector-curvature="0" /></clipPath><clipPath
       clipPathUnits="userSpaceOnUse"
       id="clipPath184"><path
         d="M 0,745.512 H 524.4 V 0.015 H 0 Z"
         id="path182"
         inkscape:connector-curvature="0" /></clipPath><clipPath
       clipPathUnits="userSpaceOnUse"
       id="clipPath196"><path
         d="m 70.56,291.552 h -36 v -35.64 h 36 z"
         id="path194"
         inkscape:connector-curvature="0" /></clipPath><clipPath
       clipPathUnits="userSpaceOnUse"
       id="clipPath202"><path
         d="m 409.213,14.588 c -89.734,0 -130.547,55.97 -166.742,111.937 -26.107,40.367 -49.814,80.735 -87.757,100.103 20.538,-0.234 40.385,-1.773 59.729,-4.581 C 294.681,193.262 385.503,149.554 496.945,83.8 505.99,76.745 515.138,69.443 524.41,61.9 V 34.018 C 493.825,23.889 460.071,17.249 422.995,15.012 418.273,14.727 413.687,14.588 409.213,14.588 M 319.305,238.021 C 229.313,239.489 136.094,258.235 1.6598,319.71 1.1118,319.941 0.54837,320.178 0,320.407 v 74.338 c 34.966,-16.544 65.865,-39.749 96.104,-62.953 56.449,-43.314 110.612,-86.628 184.744,-86.625 62.533,0.003 139.276,30.827 243.562,118.473 V 315.2 C 440.448,272.979 376.479,248.436 319.305,238.021"
         id="path200"
         inkscape:connector-curvature="0" /></clipPath><clipPath
       clipPathUnits="userSpaceOnUse"
       id="clipPath208"><path
         d="M 0,745.512 H 524.4 V 0.015 H 0 Z"
         id="path206"
         inkscape:connector-curvature="0" /></clipPath><clipPath
       clipPathUnits="userSpaceOnUse"
       id="clipPath220"><path
         d="m 245.16,291.552 h -70.92 v -139.32 h 70.92 z"
         id="path218"
         inkscape:connector-curvature="0" /></clipPath><clipPath
       clipPathUnits="userSpaceOnUse"
       id="clipPath226"><path
         d="m 409.213,14.588 c -89.734,0 -130.547,55.97 -166.742,111.937 -26.107,40.367 -49.814,80.735 -87.757,100.103 20.538,-0.234 40.385,-1.773 59.729,-4.581 C 294.681,193.262 385.503,149.554 496.945,83.8 505.99,76.745 515.138,69.443 524.41,61.9 V 34.018 C 493.825,23.889 460.071,17.249 422.995,15.012 418.273,14.727 413.687,14.588 409.213,14.588 M 319.305,238.021 C 229.313,239.489 136.094,258.235 1.6598,319.71 1.1118,319.941 0.54837,320.178 0,320.407 v 74.338 c 34.966,-16.544 65.865,-39.749 96.104,-62.953 56.449,-43.314 110.612,-86.628 184.744,-86.625 62.533,0.003 139.276,30.827 243.562,118.473 V 315.2 C 440.448,272.979 376.479,248.436 319.305,238.021"
         id="path224"
         inkscape:connector-curvature="0" /></clipPath><clipPath
       clipPathUnits="userSpaceOnUse"
       id="clipPath232"><path
         d="M 0,745.512 H 524.4 V 0.015 H 0 Z"
         id="path230"
         inkscape:connector-curvature="0" /></clipPath><clipPath
       clipPathUnits="userSpaceOnUse"
       id="clipPath244"><path
         d="M 420.12,291.552 H 314.28 v -70.2 h 105.84 z"
         id="path242"
         inkscape:connector-curvature="0" /></clipPath><clipPath
       clipPathUnits="userSpaceOnUse"
       id="clipPath250"><path
         d="m 409.213,14.588 c -89.734,0 -130.547,55.97 -166.742,111.937 -26.107,40.367 -49.814,80.735 -87.757,100.103 20.538,-0.234 40.385,-1.773 59.729,-4.581 C 294.681,193.262 385.503,149.554 496.945,83.8 505.99,76.745 515.138,69.443 524.41,61.9 V 34.018 C 493.825,23.889 460.071,17.249 422.995,15.012 418.273,14.727 413.687,14.588 409.213,14.588 M 319.305,238.021 C 229.313,239.489 136.094,258.235 1.6598,319.71 1.1118,319.941 0.54837,320.178 0,320.407 v 74.338 c 34.966,-16.544 65.865,-39.749 96.104,-62.953 56.449,-43.314 110.612,-86.628 184.744,-86.625 62.533,0.003 139.276,30.827 243.562,118.473 V 315.2 C 440.448,272.979 376.479,248.436 319.305,238.021"
         id="path248"
         inkscape:connector-curvature="0" /></clipPath><clipPath
       clipPathUnits="userSpaceOnUse"
       id="clipPath256"><path
         d="M 0,745.512 H 524.4 V 0.015 H 0 Z"
         id="path254"
         inkscape:connector-curvature="0" /></clipPath><clipPath
       clipPathUnits="userSpaceOnUse"
       id="clipPath268"><path
         d="m 175.32,256.992 h -36 v -70.2 h 36 z"
         id="path266"
         inkscape:connector-curvature="0" /></clipPath><clipPath
       clipPathUnits="userSpaceOnUse"
       id="clipPath274"><path
         d="m 409.213,14.588 c -89.734,0 -130.547,55.97 -166.742,111.937 -26.107,40.367 -49.814,80.735 -87.757,100.103 20.538,-0.234 40.385,-1.773 59.729,-4.581 C 294.681,193.262 385.503,149.554 496.945,83.8 505.99,76.745 515.138,69.443 524.41,61.9 V 34.018 C 493.825,23.889 460.071,17.249 422.995,15.012 418.273,14.727 413.687,14.588 409.213,14.588 M 319.305,238.021 C 229.313,239.489 136.094,258.235 1.6598,319.71 1.1118,319.941 0.54837,320.178 0,320.407 v 74.338 c 34.966,-16.544 65.865,-39.749 96.104,-62.953 56.449,-43.314 110.612,-86.628 184.744,-86.625 62.533,0.003 139.276,30.827 243.562,118.473 V 315.2 C 440.448,272.979 376.479,248.436 319.305,238.021"
         id="path272"
         inkscape:connector-curvature="0" /></clipPath><clipPath
       clipPathUnits="userSpaceOnUse"
       id="clipPath280"><path
         d="M 0,745.512 H 524.4 V 0.015 H 0 Z"
         id="path278"
         inkscape:connector-curvature="0" /></clipPath><clipPath
       clipPathUnits="userSpaceOnUse"
       id="clipPath292"><path
         d="M 315.36,256.992 H 244.08 V 48.552 h 71.28 z"
         id="path290"
         inkscape:connector-curvature="0" /></clipPath><clipPath
       clipPathUnits="userSpaceOnUse"
       id="clipPath298"><path
         d="m 409.213,14.588 c -89.734,0 -130.547,55.97 -166.742,111.937 -26.107,40.367 -49.814,80.735 -87.757,100.103 20.538,-0.234 40.385,-1.773 59.729,-4.581 C 294.681,193.262 385.503,149.554 496.945,83.8 505.99,76.745 515.138,69.443 524.41,61.9 V 34.018 C 493.825,23.889 460.071,17.249 422.995,15.012 418.273,14.727 413.687,14.588 409.213,14.588 M 319.305,238.021 C 229.313,239.489 136.094,258.235 1.6598,319.71 1.1118,319.941 0.54837,320.178 0,320.407 v 74.338 c 34.966,-16.544 65.865,-39.749 96.104,-62.953 56.449,-43.314 110.612,-86.628 184.744,-86.625 62.533,0.003 139.276,30.827 243.562,118.473 V 315.2 C 440.448,272.979 376.479,248.436 319.305,238.021"
         id="path296"
         inkscape:connector-curvature="0" /></clipPath><clipPath
       clipPathUnits="userSpaceOnUse"
       id="clipPath304"><path
         d="M 0,745.512 H 524.4 V 0.015 H 0 Z"
         id="path302"
         inkscape:connector-curvature="0" /></clipPath><clipPath
       clipPathUnits="userSpaceOnUse"
       id="clipPath316"><path
         d="M 385.2,187.872 H 314.28 V 13.992 h 70.92 z"
         id="path314"
         inkscape:connector-curvature="0" /></clipPath><clipPath
       clipPathUnits="userSpaceOnUse"
       id="clipPath322"><path
         d="m 409.213,14.588 c -89.734,0 -130.547,55.97 -166.742,111.937 -26.107,40.367 -49.814,80.735 -87.757,100.103 20.538,-0.234 40.385,-1.773 59.729,-4.581 C 294.681,193.262 385.503,149.554 496.945,83.8 505.99,76.745 515.138,69.443 524.41,61.9 V 34.018 C 493.825,23.889 460.071,17.249 422.995,15.012 418.273,14.727 413.687,14.588 409.213,14.588 M 319.305,238.021 C 229.313,239.489 136.094,258.235 1.6598,319.71 1.1118,319.941 0.54837,320.178 0,320.407 v 74.338 c 34.966,-16.544 65.865,-39.749 96.104,-62.953 56.449,-43.314 110.612,-86.628 184.744,-86.625 62.533,0.003 139.276,30.827 243.562,118.473 V 315.2 C 440.448,272.979 376.479,248.436 319.305,238.021"
         id="path320"
         inkscape:connector-curvature="0" /></clipPath><clipPath
       clipPathUnits="userSpaceOnUse"
       id="clipPath328"><path
         d="M 0,745.512 H 524.4 V 0.015 H 0 Z"
         id="path326"
         inkscape:connector-curvature="0" /></clipPath><clipPath
       clipPathUnits="userSpaceOnUse"
       id="clipPath340"><path
         d="m 245.16,153.312 h -36 v -35.64 h 36 z"
         id="path338"
         inkscape:connector-curvature="0" /></clipPath><clipPath
       clipPathUnits="userSpaceOnUse"
       id="clipPath346"><path
         d="m 409.213,14.588 c -89.734,0 -130.547,55.97 -166.742,111.937 -26.107,40.367 -49.814,80.735 -87.757,100.103 20.538,-0.234 40.385,-1.773 59.729,-4.581 C 294.681,193.262 385.503,149.554 496.945,83.8 505.99,76.745 515.138,69.443 524.41,61.9 V 34.018 C 493.825,23.889 460.071,17.249 422.995,15.012 418.273,14.727 413.687,14.588 409.213,14.588 M 319.305,238.021 C 229.313,239.489 136.094,258.235 1.6598,319.71 1.1118,319.941 0.54837,320.178 0,320.407 v 74.338 c 34.966,-16.544 65.865,-39.749 96.104,-62.953 56.449,-43.314 110.612,-86.628 184.744,-86.625 62.533,0.003 139.276,30.827 243.562,118.473 V 315.2 C 440.448,272.979 376.479,248.436 319.305,238.021"
         id="path344"
         inkscape:connector-curvature="0" /></clipPath><clipPath
       clipPathUnits="userSpaceOnUse"
       id="clipPath352"><path
         d="M 0,745.512 H 524.4 V 0.015 H 0 Z"
         id="path350"
         inkscape:connector-curvature="0" /></clipPath><clipPath
       clipPathUnits="userSpaceOnUse"
       id="clipPath364"><path
         d="M 455.04,153.312 H 384.12 V 13.992 h 70.92 z"
         id="path362"
         inkscape:connector-curvature="0" /></clipPath><clipPath
       clipPathUnits="userSpaceOnUse"
       id="clipPath370"><path
         d="m 409.213,14.588 c -89.734,0 -130.547,55.97 -166.742,111.937 -26.107,40.367 -49.814,80.735 -87.757,100.103 20.538,-0.234 40.385,-1.773 59.729,-4.581 C 294.681,193.262 385.503,149.554 496.945,83.8 505.99,76.745 515.138,69.443 524.41,61.9 V 34.018 C 493.825,23.889 460.071,17.249 422.995,15.012 418.273,14.727 413.687,14.588 409.213,14.588 M 319.305,238.021 C 229.313,239.489 136.094,258.235 1.6598,319.71 1.1118,319.941 0.54837,320.178 0,320.407 v 74.338 c 34.966,-16.544 65.865,-39.749 96.104,-62.953 56.449,-43.314 110.612,-86.628 184.744,-86.625 62.533,0.003 139.276,30.827 243.562,118.473 V 315.2 C 440.448,272.979 376.479,248.436 319.305,238.021"
         id="path368"
         inkscape:connector-curvature="0" /></clipPath><clipPath
       clipPathUnits="userSpaceOnUse"
       id="clipPath376"><path
         d="M 0,745.512 H 524.4 V 0.015 H 0 Z"
         id="path374"
         inkscape:connector-curvature="0" /></clipPath><clipPath
       clipPathUnits="userSpaceOnUse"
       id="clipPath388"><path
         d="M 524.88,118.752 H 453.96 V 13.992 h 70.92 z"
         id="path386"
         inkscape:connector-curvature="0" /></clipPath><clipPath
       clipPathUnits="userSpaceOnUse"
       id="clipPath394"><path
         d="m 409.213,14.588 c -89.734,0 -130.547,55.97 -166.742,111.937 -26.107,40.367 -49.814,80.735 -87.757,100.103 20.538,-0.234 40.385,-1.773 59.729,-4.581 C 294.681,193.262 385.503,149.554 496.945,83.8 505.99,76.745 515.138,69.443 524.41,61.9 V 34.018 C 493.825,23.889 460.071,17.249 422.995,15.012 418.273,14.727 413.687,14.588 409.213,14.588 M 319.305,238.021 C 229.313,239.489 136.094,258.235 1.6598,319.71 1.1118,319.941 0.54837,320.178 0,320.407 v 74.338 c 34.966,-16.544 65.865,-39.749 96.104,-62.953 56.449,-43.314 110.612,-86.628 184.744,-86.625 62.533,0.003 139.276,30.827 243.562,118.473 V 315.2 C 440.448,272.979 376.479,248.436 319.305,238.021"
         id="path392"
         inkscape:connector-curvature="0" /></clipPath><clipPath
       clipPathUnits="userSpaceOnUse"
       id="clipPath400"><path
         d="M 0,745.512 H 524.4 V 0.015 H 0 Z"
         id="path398"
         inkscape:connector-curvature="0" /></clipPath><clipPath
       clipPathUnits="userSpaceOnUse"
       id="clipPath412"><path
         d="M 315.36,49.632 H 279 v -35.64 h 36.36 z"
         id="path410"
         inkscape:connector-curvature="0" /></clipPath><clipPath
       clipPathUnits="userSpaceOnUse"
       id="clipPath418"><path
         d="m 409.213,14.588 c -89.734,0 -130.547,55.97 -166.742,111.937 -26.107,40.367 -49.814,80.735 -87.757,100.103 20.538,-0.234 40.385,-1.773 59.729,-4.581 C 294.681,193.262 385.503,149.554 496.945,83.8 505.99,76.745 515.138,69.443 524.41,61.9 V 34.018 C 493.825,23.889 460.071,17.249 422.995,15.012 418.273,14.727 413.687,14.588 409.213,14.588 M 319.305,238.021 C 229.313,239.489 136.094,258.235 1.6598,319.71 1.1118,319.941 0.54837,320.178 0,320.407 v 74.338 c 34.966,-16.544 65.865,-39.749 96.104,-62.953 56.449,-43.314 110.612,-86.628 184.744,-86.625 62.533,0.003 139.276,30.827 243.562,118.473 V 315.2 C 440.448,272.979 376.479,248.436 319.305,238.021"
         id="path416"
         inkscape:connector-curvature="0" /></clipPath><clipPath
       clipPathUnits="userSpaceOnUse"
       id="clipPath424"><path
         d="M 0,745.512 H 524.4 V 0.015 H 0 Z"
         id="path422"
         inkscape:connector-curvature="0" /></clipPath><clipPath
       clipPathUnits="userSpaceOnUse"
       id="clipPath436"><path
         d="M 106.92,321.072 H -0.36 v -68.76 h 107.28 z"
         id="path434"
         inkscape:connector-curvature="0" /></clipPath><clipPath
       clipPathUnits="userSpaceOnUse"
       id="clipPath442"><path
         d="M 496.945,83.8 C 385.503,149.554 294.681,193.262 214.443,222.047 313.308,207.695 399.069,160.141 496.945,83.8 M 255.054,232.065 C 179.132,232.062 106.431,257.317 0,297.83 v 22.577 c 0.54837,-0.229 1.1118,-0.466 1.6598,-0.697 134.4342,-61.475 227.6532,-80.221 317.6452,-81.689 -22.175,-4.039 -43.341,-5.955 -64.251,-5.956"
         id="path440"
         inkscape:connector-curvature="0" /></clipPath><clipPath
       clipPathUnits="userSpaceOnUse"
       id="clipPath454"><path
         d="M 213.48,287.232 H 105.84 v -68.76 h 107.64 z"
         id="path452"
         inkscape:connector-curvature="0" /></clipPath><clipPath
       clipPathUnits="userSpaceOnUse"
       id="clipPath460"><path
         d="M 496.945,83.8 C 385.503,149.554 294.681,193.262 214.443,222.047 313.308,207.695 399.069,160.141 496.945,83.8 M 255.054,232.065 C 179.132,232.062 106.431,257.317 0,297.83 v 22.577 c 0.54837,-0.229 1.1118,-0.466 1.6598,-0.697 134.4342,-61.475 227.6532,-80.221 317.6452,-81.689 -22.175,-4.039 -43.341,-5.955 -64.251,-5.956"
         id="path458"
         inkscape:connector-curvature="0" /></clipPath><clipPath
       clipPathUnits="userSpaceOnUse"
       id="clipPath472"><path
         d="M 320.04,253.392 H 212.4 v -68.76 h 107.64 z"
         id="path470"
         inkscape:connector-curvature="0" /></clipPath><clipPath
       clipPathUnits="userSpaceOnUse"
       id="clipPath478"><path
         d="M 496.945,83.8 C 385.503,149.554 294.681,193.262 214.443,222.047 313.308,207.695 399.069,160.141 496.945,83.8 M 255.054,232.065 C 179.132,232.062 106.431,257.317 0,297.83 v 22.577 c 0.54837,-0.229 1.1118,-0.466 1.6598,-0.697 134.4342,-61.475 227.6532,-80.221 317.6452,-81.689 -22.175,-4.039 -43.341,-5.955 -64.251,-5.956"
         id="path476"
         inkscape:connector-curvature="0" /></clipPath><clipPath
       clipPathUnits="userSpaceOnUse"
       id="clipPath490"><path
         d="m 355.68,219.552 h -36.72 v -68.76 h 36.72 z"
         id="path488"
         inkscape:connector-curvature="0" /></clipPath><clipPath
       clipPathUnits="userSpaceOnUse"
       id="clipPath496"><path
         d="M 496.945,83.8 C 385.503,149.554 294.681,193.262 214.443,222.047 313.308,207.695 399.069,160.141 496.945,83.8 M 255.054,232.065 C 179.132,232.062 106.431,257.317 0,297.83 v 22.577 c 0.54837,-0.229 1.1118,-0.466 1.6598,-0.697 134.4342,-61.475 227.6532,-80.221 317.6452,-81.689 -22.175,-4.039 -43.341,-5.955 -64.251,-5.956"
         id="path494"
         inkscape:connector-curvature="0" /></clipPath><clipPath
       clipPathUnits="userSpaceOnUse"
       id="clipPath508"><path
         d="m 320.04,185.712 h -36.72 v -34.92 h 36.72 z"
         id="path506"
         inkscape:connector-curvature="0" /></clipPath><clipPath
       clipPathUnits="userSpaceOnUse"
       id="clipPath514"><path
         d="M 496.945,83.8 C 385.503,149.554 294.681,193.262 214.443,222.047 313.308,207.695 399.069,160.141 496.945,83.8 M 255.054,232.065 C 179.132,232.062 106.431,257.317 0,297.83 v 22.577 c 0.54837,-0.229 1.1118,-0.466 1.6598,-0.697 134.4342,-61.475 227.6532,-80.221 317.6452,-81.689 -22.175,-4.039 -43.341,-5.955 -64.251,-5.956"
         id="path512"
         inkscape:connector-curvature="0" /></clipPath><clipPath
       clipPathUnits="userSpaceOnUse"
       id="clipPath526"><path
         d="m 426.6,185.712 h -72 v -68.76 h 72 z"
         id="path524"
         inkscape:connector-curvature="0" /></clipPath><clipPath
       clipPathUnits="userSpaceOnUse"
       id="clipPath532"><path
         d="M 496.945,83.8 C 385.503,149.554 294.681,193.262 214.443,222.047 313.308,207.695 399.069,160.141 496.945,83.8 M 255.054,232.065 C 179.132,232.062 106.431,257.317 0,297.83 v 22.577 c 0.54837,-0.229 1.1118,-0.466 1.6598,-0.697 134.4342,-61.475 227.6532,-80.221 317.6452,-81.689 -22.175,-4.039 -43.341,-5.955 -64.251,-5.956"
         id="path530"
         inkscape:connector-curvature="0" /></clipPath><clipPath
       clipPathUnits="userSpaceOnUse"
       id="clipPath544"><path
         d="m 461.88,151.872 h -36.36 v -68.76 h 36.36 z"
         id="path542"
         inkscape:connector-curvature="0" /></clipPath><clipPath
       clipPathUnits="userSpaceOnUse"
       id="clipPath550"><path
         d="M 496.945,83.8 C 385.503,149.554 294.681,193.262 214.443,222.047 313.308,207.695 399.069,160.141 496.945,83.8 M 255.054,232.065 C 179.132,232.062 106.431,257.317 0,297.83 v 22.577 c 0.54837,-0.229 1.1118,-0.466 1.6598,-0.697 134.4342,-61.475 227.6532,-80.221 317.6452,-81.689 -22.175,-4.039 -43.341,-5.955 -64.251,-5.956"
         id="path548"
         inkscape:connector-curvature="0" /></clipPath><clipPath
       clipPathUnits="userSpaceOnUse"
       id="clipPath562"><path
         d="M 497.52,118.032 H 460.8 v -34.92 h 36.72 z"
         id="path560"
         inkscape:connector-curvature="0" /></clipPath><clipPath
       clipPathUnits="userSpaceOnUse"
       id="clipPath568"><path
         d="M 496.945,83.8 C 385.503,149.554 294.681,193.262 214.443,222.047 313.308,207.695 399.069,160.141 496.945,83.8 M 255.054,232.065 C 179.132,232.062 106.431,257.317 0,297.83 v 22.577 c 0.54837,-0.229 1.1118,-0.466 1.6598,-0.697 134.4342,-61.475 227.6532,-80.221 317.6452,-81.689 -22.175,-4.039 -43.341,-5.955 -64.251,-5.956"
         id="path566"
         inkscape:connector-curvature="0" /></clipPath><clipPath
       clipPathUnits="userSpaceOnUse"
       id="clipPath580"><path
         d="m 524.88,315.672 h -70.92 v -96.12 h 70.92 z"
         id="path578"
         inkscape:connector-curvature="0" /></clipPath><clipPath
       clipPathUnits="userSpaceOnUse"
       id="clipPath586"><path
         d="m 524.41,61.9 c -9.272,7.543 -18.42,14.845 -27.465,21.9 9.034,-5.33 18.154,-10.777 27.465,-16.4 V 61.9 M 0,209.979 v 60.451 c 67.707,-6.358 136.028,-20.252 214.443,-48.383 -19.344,2.808 -39.191,4.347 -59.729,4.581 -14.665,7.486 -31.45,11.833 -51.328,11.833 -27.633,0 -61.245,-8.413 -103.386,-28.482 m 331.144,27.946 c -3.943,0 -7.887,0.032 -11.839,0.096 57.174,10.415 121.143,34.958 205.105,77.179 v -62.825 c -71.694,-6.952 -132.117,-14.449 -193.266,-14.45"
         id="path584"
         inkscape:connector-curvature="0" /></clipPath><clipPath
       clipPathUnits="userSpaceOnUse"
       id="clipPath592"><path
         d="M 0,745.512 H 524.4 V 0.015 H 0 Z"
         id="path590"
         inkscape:connector-curvature="0" /></clipPath><clipPath
       clipPathUnits="userSpaceOnUse"
       id="clipPath604"><path
         d="M 140.4,283.992 H -0.36 v -64.44 H 140.4 Z"
         id="path602"
         inkscape:connector-curvature="0" /></clipPath><clipPath
       clipPathUnits="userSpaceOnUse"
       id="clipPath610"><path
         d="m 524.41,61.9 c -9.272,7.543 -18.42,14.845 -27.465,21.9 9.034,-5.33 18.154,-10.777 27.465,-16.4 V 61.9 M 0,209.979 v 60.451 c 67.707,-6.358 136.028,-20.252 214.443,-48.383 -19.344,2.808 -39.191,4.347 -59.729,4.581 -14.665,7.486 -31.45,11.833 -51.328,11.833 -27.633,0 -61.245,-8.413 -103.386,-28.482 m 331.144,27.946 c -3.943,0 -7.887,0.032 -11.839,0.096 57.174,10.415 121.143,34.958 205.105,77.179 v -62.825 c -71.694,-6.952 -132.117,-14.449 -193.266,-14.45"
         id="path608"
         inkscape:connector-curvature="0" /></clipPath><clipPath
       clipPathUnits="userSpaceOnUse"
       id="clipPath616"><path
         d="M 0,745.512 H 524.4 V 0.015 H 0 Z"
         id="path614"
         inkscape:connector-curvature="0" /></clipPath><clipPath
       clipPathUnits="userSpaceOnUse"
       id="clipPath628"><path
         d="M 455.04,283.992 H 349.2 v -64.44 h 105.84 z"
         id="path626"
         inkscape:connector-curvature="0" /></clipPath><clipPath
       clipPathUnits="userSpaceOnUse"
       id="clipPath634"><path
         d="m 524.41,61.9 c -9.272,7.543 -18.42,14.845 -27.465,21.9 9.034,-5.33 18.154,-10.777 27.465,-16.4 V 61.9 M 0,209.979 v 60.451 c 67.707,-6.358 136.028,-20.252 214.443,-48.383 -19.344,2.808 -39.191,4.347 -59.729,4.581 -14.665,7.486 -31.45,11.833 -51.328,11.833 -27.633,0 -61.245,-8.413 -103.386,-28.482 m 331.144,27.946 c -3.943,0 -7.887,0.032 -11.839,0.096 57.174,10.415 121.143,34.958 205.105,77.179 v -62.825 c -71.694,-6.952 -132.117,-14.449 -193.266,-14.45"
         id="path632"
         inkscape:connector-curvature="0" /></clipPath><clipPath
       clipPathUnits="userSpaceOnUse"
       id="clipPath640"><path
         d="M 0,745.512 H 524.4 V 0.015 H 0 Z"
         id="path638"
         inkscape:connector-curvature="0" /></clipPath><clipPath
       clipPathUnits="userSpaceOnUse"
       id="clipPath652"><path
         d="M 245.16,252.312 H 139.32 v -32.76 h 105.84 z"
         id="path650"
         inkscape:connector-curvature="0" /></clipPath><clipPath
       clipPathUnits="userSpaceOnUse"
       id="clipPath658"><path
         d="m 524.41,61.9 c -9.272,7.543 -18.42,14.845 -27.465,21.9 9.034,-5.33 18.154,-10.777 27.465,-16.4 V 61.9 M 0,209.979 v 60.451 c 67.707,-6.358 136.028,-20.252 214.443,-48.383 -19.344,2.808 -39.191,4.347 -59.729,4.581 -14.665,7.486 -31.45,11.833 -51.328,11.833 -27.633,0 -61.245,-8.413 -103.386,-28.482 m 331.144,27.946 c -3.943,0 -7.887,0.032 -11.839,0.096 57.174,10.415 121.143,34.958 205.105,77.179 v -62.825 c -71.694,-6.952 -132.117,-14.449 -193.266,-14.45"
         id="path656"
         inkscape:connector-curvature="0" /></clipPath><clipPath
       clipPathUnits="userSpaceOnUse"
       id="clipPath664"><path
         d="M 0,745.512 H 524.4 V 0.015 H 0 Z"
         id="path662"
         inkscape:connector-curvature="0" /></clipPath><clipPath
       clipPathUnits="userSpaceOnUse"
       id="clipPath676"><path
         d="m 350.28,252.312 h -36 v -32.76 h 36 z"
         id="path674"
         inkscape:connector-curvature="0" /></clipPath><clipPath
       clipPathUnits="userSpaceOnUse"
       id="clipPath682"><path
         d="m 524.41,61.9 c -9.272,7.543 -18.42,14.845 -27.465,21.9 9.034,-5.33 18.154,-10.777 27.465,-16.4 V 61.9 M 0,209.979 v 60.451 c 67.707,-6.358 136.028,-20.252 214.443,-48.383 -19.344,2.808 -39.191,4.347 -59.729,4.581 -14.665,7.486 -31.45,11.833 -51.328,11.833 -27.633,0 -61.245,-8.413 -103.386,-28.482 m 331.144,27.946 c -3.943,0 -7.887,0.032 -11.839,0.096 57.174,10.415 121.143,34.958 205.105,77.179 v -62.825 c -71.694,-6.952 -132.117,-14.449 -193.266,-14.45"
         id="path680"
         inkscape:connector-curvature="0" /></clipPath><clipPath
       clipPathUnits="userSpaceOnUse"
       id="clipPath688"><path
         d="M 0,745.512 H 524.4 V 0.015 H 0 Z"
         id="path686"
         inkscape:connector-curvature="0" /></clipPath><clipPath
       clipPathUnits="userSpaceOnUse"
       id="clipPath700"><path
         d="m 35.64,220.632 h -36 v -32.76 h 36 z"
         id="path698"
         inkscape:connector-curvature="0" /></clipPath><clipPath
       clipPathUnits="userSpaceOnUse"
       id="clipPath706"><path
         d="m 524.41,61.9 c -9.272,7.543 -18.42,14.845 -27.465,21.9 9.034,-5.33 18.154,-10.777 27.465,-16.4 V 61.9 M 0,209.979 v 60.451 c 67.707,-6.358 136.028,-20.252 214.443,-48.383 -19.344,2.808 -39.191,4.347 -59.729,4.581 -14.665,7.486 -31.45,11.833 -51.328,11.833 -27.633,0 -61.245,-8.413 -103.386,-28.482 m 331.144,27.946 c -3.943,0 -7.887,0.032 -11.839,0.096 57.174,10.415 121.143,34.958 205.105,77.179 v -62.825 c -71.694,-6.952 -132.117,-14.449 -193.266,-14.45"
         id="path704"
         inkscape:connector-curvature="0" /></clipPath><clipPath
       clipPathUnits="userSpaceOnUse"
       id="clipPath712"><path
         d="M 0,745.512 H 524.4 V 0.015 H 0 Z"
         id="path710"
         inkscape:connector-curvature="0" /></clipPath><clipPath
       clipPathUnits="userSpaceOnUse"
       id="clipPath724"><path
         d="m 524.88,94.272 h -36 v -32.76 h 36 z"
         id="path722"
         inkscape:connector-curvature="0" /></clipPath><clipPath
       clipPathUnits="userSpaceOnUse"
       id="clipPath730"><path
         d="m 524.41,61.9 c -9.272,7.543 -18.42,14.845 -27.465,21.9 9.034,-5.33 18.154,-10.777 27.465,-16.4 V 61.9 M 0,209.979 v 60.451 c 67.707,-6.358 136.028,-20.252 214.443,-48.383 -19.344,2.808 -39.191,4.347 -59.729,4.581 -14.665,7.486 -31.45,11.833 -51.328,11.833 -27.633,0 -61.245,-8.413 -103.386,-28.482 m 331.144,27.946 c -3.943,0 -7.887,0.032 -11.839,0.096 57.174,10.415 121.143,34.958 205.105,77.179 v -62.825 c -71.694,-6.952 -132.117,-14.449 -193.266,-14.45"
         id="path728"
         inkscape:connector-curvature="0" /></clipPath><clipPath
       clipPathUnits="userSpaceOnUse"
       id="clipPath736"><path
         d="M 0,745.512 H 524.4 V 0.015 H 0 Z"
         id="path734"
         inkscape:connector-curvature="0" /></clipPath><clipPath
       clipPathUnits="userSpaceOnUse"
       id="clipPath748"><path
         d="M 105.48,298.392 H -0.36 v -34.2 h 105.84 z"
         id="path746"
         inkscape:connector-curvature="0" /></clipPath><clipPath
       clipPathUnits="userSpaceOnUse"
       id="clipPath754"><path
         d="M 524.41,67.4 C 515.099,73.023 505.979,78.47 496.945,83.8 399.069,160.141 313.308,207.695 214.443,222.047 136.028,250.178 67.707,264.072 0,270.43 v 27.4 c 106.431,-40.513 179.132,-65.768 255.054,-65.765 20.91,0.001 42.076,1.917 64.251,5.956 3.952,-0.064 7.896,-0.096 11.839,-0.096 61.149,10e-4 121.572,7.498 193.266,14.45 V 67.4"
         id="path752"
         inkscape:connector-curvature="0" /></clipPath><clipPath
       clipPathUnits="userSpaceOnUse"
       id="clipPath760"><path
         d="M 0,745.512 H 524.4 V 0.015 H 0 Z"
         id="path758"
         inkscape:connector-curvature="0" /></clipPath><clipPath
       clipPathUnits="userSpaceOnUse"
       id="clipPath772"><path
         d="M 524.88,265.272 H 34.56 v -33.84 h 490.32 z"
         id="path770"
         inkscape:connector-curvature="0" /></clipPath><clipPath
       clipPathUnits="userSpaceOnUse"
       id="clipPath778"><path
         d="M 524.41,67.4 C 515.099,73.023 505.979,78.47 496.945,83.8 399.069,160.141 313.308,207.695 214.443,222.047 136.028,250.178 67.707,264.072 0,270.43 v 27.4 c 106.431,-40.513 179.132,-65.768 255.054,-65.765 20.91,0.001 42.076,1.917 64.251,5.956 3.952,-0.064 7.896,-0.096 11.839,-0.096 61.149,10e-4 121.572,7.498 193.266,14.45 V 67.4"
         id="path776"
         inkscape:connector-curvature="0" /></clipPath><clipPath
       clipPathUnits="userSpaceOnUse"
       id="clipPath784"><path
         d="M 0,745.512 H 524.4 V 0.015 H 0 Z"
         id="path782"
         inkscape:connector-curvature="0" /></clipPath><clipPath
       clipPathUnits="userSpaceOnUse"
       id="clipPath796"><path
         d="M 524.88,232.512 H 174.24 v -33.84 h 350.64 z"
         id="path794"
         inkscape:connector-curvature="0" /></clipPath><clipPath
       clipPathUnits="userSpaceOnUse"
       id="clipPath802"><path
         d="M 524.41,67.4 C 515.099,73.023 505.979,78.47 496.945,83.8 399.069,160.141 313.308,207.695 214.443,222.047 136.028,250.178 67.707,264.072 0,270.43 v 27.4 c 106.431,-40.513 179.132,-65.768 255.054,-65.765 20.91,0.001 42.076,1.917 64.251,5.956 3.952,-0.064 7.896,-0.096 11.839,-0.096 61.149,10e-4 121.572,7.498 193.266,14.45 V 67.4"
         id="path800"
         inkscape:connector-curvature="0" /></clipPath><clipPath
       clipPathUnits="userSpaceOnUse"
       id="clipPath808"><path
         d="M 0,745.512 H 524.4 V 0.015 H 0 Z"
         id="path806"
         inkscape:connector-curvature="0" /></clipPath><clipPath
       clipPathUnits="userSpaceOnUse"
       id="clipPath820"><path
         d="M 524.88,199.752 H 279 v -34.2 h 245.88 z"
         id="path818"
         inkscape:connector-curvature="0" /></clipPath><clipPath
       clipPathUnits="userSpaceOnUse"
       id="clipPath826"><path
         d="M 524.41,67.4 C 515.099,73.023 505.979,78.47 496.945,83.8 399.069,160.141 313.308,207.695 214.443,222.047 136.028,250.178 67.707,264.072 0,270.43 v 27.4 c 106.431,-40.513 179.132,-65.768 255.054,-65.765 20.91,0.001 42.076,1.917 64.251,5.956 3.952,-0.064 7.896,-0.096 11.839,-0.096 61.149,10e-4 121.572,7.498 193.266,14.45 V 67.4"
         id="path824"
         inkscape:connector-curvature="0" /></clipPath><clipPath
       clipPathUnits="userSpaceOnUse"
       id="clipPath832"><path
         d="M 0,745.512 H 524.4 V 0.015 H 0 Z"
         id="path830"
         inkscape:connector-curvature="0" /></clipPath><clipPath
       clipPathUnits="userSpaceOnUse"
       id="clipPath844"><path
         d="M 524.88,166.632 H 349.2 v -33.84 h 175.68 z"
         id="path842"
         inkscape:connector-curvature="0" /></clipPath><clipPath
       clipPathUnits="userSpaceOnUse"
       id="clipPath850"><path
         d="M 524.41,67.4 C 515.099,73.023 505.979,78.47 496.945,83.8 399.069,160.141 313.308,207.695 214.443,222.047 136.028,250.178 67.707,264.072 0,270.43 v 27.4 c 106.431,-40.513 179.132,-65.768 255.054,-65.765 20.91,0.001 42.076,1.917 64.251,5.956 3.952,-0.064 7.896,-0.096 11.839,-0.096 61.149,10e-4 121.572,7.498 193.266,14.45 V 67.4"
         id="path848"
         inkscape:connector-curvature="0" /></clipPath><clipPath
       clipPathUnits="userSpaceOnUse"
       id="clipPath856"><path
         d="M 0,745.512 H 524.4 V 0.015 H 0 Z"
         id="path854"
         inkscape:connector-curvature="0" /></clipPath><clipPath
       clipPathUnits="userSpaceOnUse"
       id="clipPath868"><path
         d="M 524.88,133.872 H 419.04 v -34.2 h 105.84 z"
         id="path866"
         inkscape:connector-curvature="0" /></clipPath><clipPath
       clipPathUnits="userSpaceOnUse"
       id="clipPath874"><path
         d="M 524.41,67.4 C 515.099,73.023 505.979,78.47 496.945,83.8 399.069,160.141 313.308,207.695 214.443,222.047 136.028,250.178 67.707,264.072 0,270.43 v 27.4 c 106.431,-40.513 179.132,-65.768 255.054,-65.765 20.91,0.001 42.076,1.917 64.251,5.956 3.952,-0.064 7.896,-0.096 11.839,-0.096 61.149,10e-4 121.572,7.498 193.266,14.45 V 67.4"
         id="path872"
         inkscape:connector-curvature="0" /></clipPath><clipPath
       clipPathUnits="userSpaceOnUse"
       id="clipPath880"><path
         d="M 0,745.512 H 524.4 V 0.015 H 0 Z"
         id="path878"
         inkscape:connector-curvature="0" /></clipPath><clipPath
       clipPathUnits="userSpaceOnUse"
       id="clipPath892"><path
         d="m 524.88,100.752 h -70.92 v -33.84 h 70.92 z"
         id="path890"
         inkscape:connector-curvature="0" /></clipPath><clipPath
       clipPathUnits="userSpaceOnUse"
       id="clipPath898"><path
         d="M 524.41,67.4 C 515.099,73.023 505.979,78.47 496.945,83.8 399.069,160.141 313.308,207.695 214.443,222.047 136.028,250.178 67.707,264.072 0,270.43 v 27.4 c 106.431,-40.513 179.132,-65.768 255.054,-65.765 20.91,0.001 42.076,1.917 64.251,5.956 3.952,-0.064 7.896,-0.096 11.839,-0.096 61.149,10e-4 121.572,7.498 193.266,14.45 V 67.4"
         id="path896"
         inkscape:connector-curvature="0" /></clipPath><clipPath
       clipPathUnits="userSpaceOnUse"
       id="clipPath904"><path
         d="M 0,745.512 H 524.4 V 0.015 H 0 Z"
         id="path902"
         inkscape:connector-curvature="0" /></clipPath><clipPath
       clipPathUnits="userSpaceOnUse"
       id="clipPath922"><path
         d="M 0,0 H 160.162 V 59.5273 H 0 Z"
         id="path920"
         inkscape:connector-curvature="0" /></clipPath><clipPath
       clipPathUnits="userSpaceOnUse"
       id="clipPath930"><path
         d="M 0,59.527 H 160.162 V 0 H 0 Z"
         id="path928"
         inkscape:connector-curvature="0" /></clipPath><clipPath
       clipPathUnits="userSpaceOnUse"
       id="clipPath964"><path
         d="M 0,0 H 162.5 V 136.23399 H 0 Z"
         id="path962"
         inkscape:connector-curvature="0" /></clipPath><clipPath
       clipPathUnits="userSpaceOnUse"
       id="clipPath1166"><path
         d="M 0,0 H 59.889 V 47.48 H 0 Z"
         id="path1164"
         inkscape:connector-curvature="0" /></clipPath><clipPath
       clipPathUnits="userSpaceOnUse"
       id="clipPath1174"><path
         d="M 0,47.48 H 59.88 V 0 H 0 Z"
         id="path1172"
         inkscape:connector-curvature="0" /></clipPath><clipPath
       clipPathUnits="userSpaceOnUse"
       id="clipPath1224"><path
         d="m 0,59.82373 v -0.765 h 115.28125 v 0.765 0.765 H 0"
         id="path1222"
         inkscape:connector-curvature="0"
         style="clip-rule:evenodd" /></clipPath><clipPath
       clipPathUnits="userSpaceOnUse"
       id="clipPath922-6"><path
         d="M 0,0 H 160.162 V 59.5273 H 0 Z"
         id="path920-7"
         inkscape:connector-curvature="0" /></clipPath><clipPath
       clipPathUnits="userSpaceOnUse"
       id="clipPath930-2"><path
         d="M 0,59.527 H 160.162 V 0 H 0 Z"
         id="path928-1"
         inkscape:connector-curvature="0" /></clipPath><clipPath
       clipPathUnits="userSpaceOnUse"
       id="clipPath922-6-3"><path
         d="M 0,0 H 160.162 V 59.5273 H 0 Z"
         id="path920-7-3"
         inkscape:connector-curvature="0" /></clipPath><clipPath
       clipPathUnits="userSpaceOnUse"
       id="clipPath930-2-9"><path
         d="M 0,59.527 H 160.162 V 0 H 0 Z"
         id="path928-1-8"
         inkscape:connector-curvature="0" /></clipPath><clipPath
       clipPathUnits="userSpaceOnUse"
       id="clipPath922-6-3-0"><path
         d="M 0,0 H 160.162 V 59.5273 H 0 Z"
         id="path920-7-3-1"
         inkscape:connector-curvature="0" /></clipPath><clipPath
       clipPathUnits="userSpaceOnUse"
       id="clipPath930-2-9-4"><path
         d="M 0,59.527 H 160.162 V 0 H 0 Z"
         id="path928-1-8-6"
         inkscape:connector-curvature="0" /></clipPath></defs><sodipodi:namedview
     pagecolor="#ffffff"
     bordercolor="#666666"
     borderopacity="1"
     objecttolerance="10"
     gridtolerance="10"
     guidetolerance="10"
     inkscape:pageopacity="0"
     inkscape:pageshadow="2"
     inkscape:window-width="1600"
     inkscape:window-height="837"
     id="namedview4"
     showgrid="false"
     inkscape:zoom="0.060740918"
     inkscape:cx="4817.1583"
     inkscape:cy="1890.1832"
     inkscape:window-x="-8"
     inkscape:window-y="-8"
     inkscape:window-maximized="1"
     inkscape:current-layer="g14" /><g
     id="g10"
     inkscape:groupmode="layer"
     inkscape:label="brother-logo"
     transform="matrix(1.3333333,0,0,-1.3333333,0,4096)"><g
       id="g12"
       transform="matrix(1,0,0,-1,0,728.50397)"><g
         id="g14"><g
           id="g910"
           transform="matrix(19.894478,0,0,19.894478,-6006.6272,-1406.3477)"
           inkscape:export-filename="G:\Users\suitedoalex\sites\brother-logo-3.png"
           inkscape:export-xdpi="11.223652"
           inkscape:export-ydpi="11.223652"><g
             id="g912"><g
               id="g914"
               transform="matrix(1,0,0,-1,299.0506,59.5273)"><g
                 id="g916"><g
                   id="g918"
                   clip-path="url(#clipPath922-6)"><g
                     id="g924"><g
                       id="g926"
                       clip-path="url(#clipPath930-2)"><g
                         id="g932"
                         transform="translate(27.3496,33.3774)"><path
                           d="M 0,0 C 3.697,0 6.509,-2.862 6.509,-6.513 6.509,-10.17 3.68,-13.03 0,-13.03 c -3.679,0 -6.511,2.88 -6.511,6.517 C -6.511,-2.878 -3.696,0 0,0 m 33.044,0 c 3.694,0 6.513,-2.862 6.513,-6.513 0,-3.657 -2.836,-6.517 -6.513,-6.517 -3.681,0 -6.513,2.88 -6.513,6.517 0,3.635 2.812,6.513 6.513,6.513 m 60.174,0.711 c 3.535,0 5.648,-2.837 6.06,-4.609 H 87.187 c 0.917,2.847 3.281,4.609 6.031,4.609 M 0,-18.392 c 6.106,0 10.555,3.976 11.657,9.278 v -8.72 h 5.584 v 10.868 c 0,0.496 0.03,1.045 0.049,1.553 0.102,3.313 2.272,5.287 5.72,5.344 -1.197,-1.859 -1.897,-4.069 -1.897,-6.444 0,-6.587 5.342,-11.922 11.931,-11.922 5.799,0 10.632,4.141 11.701,9.632 v -0.03 c 0,-5.726 4.603,-9.63 10.137,-9.63 2.336,0 4.4,1.002 5.976,2.637 v -2.007 h 5.569 v 11.957 c 0.006,0.223 0.017,0.413 0.025,0.598 0.14,3.8 2.36,5.447 4.809,5.447 2.424,0 4.517,-1.655 4.601,-5.429 0.02,-0.326 0.022,-0.543 0.022,-0.914 v -11.659 l 5.648,-0.001 v 8.879 c 1.049,-5.734 5.899,-9.436 11.69,-9.436 6.55,0 10.254,4.196 11.246,8.58 h -5.465 c -0.477,-1.56 -2.416,-3.954 -5.785,-3.954 -3.037,0 -5.625,2.075 -6.281,5.461 h 18.152 v -9.53 h 5.598 v 10.868 c 0,0.496 0.025,1.045 0.041,1.553 0.109,3.365 2.339,5.35 5.878,5.35 h 0.616 v 5.334 h -0.616 c -7.406,0 -11.353,-4.152 -11.508,-9.534 -1.07,5.856 -6.125,9.679 -11.88,9.679 -5.739,0 -10.631,-3.822 -11.686,-9.632 -0.006,5.162 -4.029,9.623 -9.271,9.623 -2.278,0 -4.252,-0.878 -5.834,-2.408 v 7.514 H 60.858 V -6.214 c 0,-0.55 -0.023,-0.902 -0.101,-1.72 -0.336,-3.473 -2.676,-5.188 -5.225,-5.188 -2.647,0 -5.032,1.248 -5.107,5.171 -0.013,0.679 -0.029,0.959 -0.029,1.439 v 6.263 h 8.675 v 5.258 h -8.675 v 5.504 H 44.745 V -4.224 C 43.676,1.263 38.843,5.409 33.044,5.409 29.306,5.409 25.97,3.688 23.782,1 V 5.271 H 23.166 C 15.885,5.271 11.952,1.255 11.675,-3.995 10.606,1.327 6.207,5.271 0.65,5.271 c -2.915,0 -5.185,-1.058 -6.962,-2.833 v 8.122 h -5.447 V -3.553 c 0,-1.041 0.029,-2.02 0.039,-2.96 0.072,-6.527 4.644,-11.879 11.72,-11.879"
                           style="fill:#1d50a0;fill-opacity:1;fill-rule:nonzero;stroke:none"
                           id="path934"
                           inkscape:connector-curvature="0" /></g></g></g></g></g></g></g><g
             id="g936"
             transform="translate(14.17324,84.03937)" /></g><rect
           style="fill:#0d2ea0;fill-opacity:1;fill-rule:evenodd;stroke-width:0.59667307"
           id="rect1350"
           width="3464.0259"
           height="1304.193"
           x="3816.9331"
           y="-1397.8549"
           inkscape:export-filename="G:\Users\suitedoalex\sites\brother-logo-5.png"
           inkscape:export-xdpi="29.930492"
           inkscape:export-ydpi="29.930492" /><g
           id="g910-9-3"
           transform="matrix(19.894478,0,0,19.894478,-1993.6815,-1344.6101)"
           inkscape:export-filename="G:\Users\suitedoalex\sites\brother-logo-5.png"
           inkscape:export-xdpi="29.930492"
           inkscape:export-ydpi="29.930492"
           style="fill:#ffffff"><g
             id="g912-2-9"
             style="fill:#ffffff"><g
               id="g914-8-6"
               transform="matrix(1,0,0,-1,299.0506,59.5273)"
               style="fill:#ffffff"><g
                 id="g916-6-2"
                 style="fill:#ffffff"><g
                   id="g918-7-6"
                   clip-path="url(#clipPath922-6-3-0)"
                   style="fill:#ffffff"><g
                     id="g924-0-3"
                     style="fill:#ffffff"><g
                       id="g926-0-5"
                       clip-path="url(#clipPath930-2-9-4)"
                       style="fill:#ffffff"><g
                         id="g932-4-7"
                         transform="translate(27.3496,33.3774)"
                         style="fill:#ffffff"><path
                           d="M 0,0 C 3.697,0 6.509,-2.862 6.509,-6.513 6.509,-10.17 3.68,-13.03 0,-13.03 c -3.679,0 -6.511,2.88 -6.511,6.517 C -6.511,-2.878 -3.696,0 0,0 m 33.044,0 c 3.694,0 6.513,-2.862 6.513,-6.513 0,-3.657 -2.836,-6.517 -6.513,-6.517 -3.681,0 -6.513,2.88 -6.513,6.517 0,3.635 2.812,6.513 6.513,6.513 m 60.174,0.711 c 3.535,0 5.648,-2.837 6.06,-4.609 H 87.187 c 0.917,2.847 3.281,4.609 6.031,4.609 M 0,-18.392 c 6.106,0 10.555,3.976 11.657,9.278 v -8.72 h 5.584 v 10.868 c 0,0.496 0.03,1.045 0.049,1.553 0.102,3.313 2.272,5.287 5.72,5.344 -1.197,-1.859 -1.897,-4.069 -1.897,-6.444 0,-6.587 5.342,-11.922 11.931,-11.922 5.799,0 10.632,4.141 11.701,9.632 v -0.03 c 0,-5.726 4.603,-9.63 10.137,-9.63 2.336,0 4.4,1.002 5.976,2.637 v -2.007 h 5.569 v 11.957 c 0.006,0.223 0.017,0.413 0.025,0.598 0.14,3.8 2.36,5.447 4.809,5.447 2.424,0 4.517,-1.655 4.601,-5.429 0.02,-0.326 0.022,-0.543 0.022,-0.914 v -11.659 l 5.648,-0.001 v 8.879 c 1.049,-5.734 5.899,-9.436 11.69,-9.436 6.55,0 10.254,4.196 11.246,8.58 h -5.465 c -0.477,-1.56 -2.416,-3.954 -5.785,-3.954 -3.037,0 -5.625,2.075 -6.281,5.461 h 18.152 v -9.53 h 5.598 v 10.868 c 0,0.496 0.025,1.045 0.041,1.553 0.109,3.365 2.339,5.35 5.878,5.35 h 0.616 v 5.334 h -0.616 c -7.406,0 -11.353,-4.152 -11.508,-9.534 -1.07,5.856 -6.125,9.679 -11.88,9.679 -5.739,0 -10.631,-3.822 -11.686,-9.632 -0.006,5.162 -4.029,9.623 -9.271,9.623 -2.278,0 -4.252,-0.878 -5.834,-2.408 v 7.514 H 60.858 V -6.214 c 0,-0.55 -0.023,-0.902 -0.101,-1.72 -0.336,-3.473 -2.676,-5.188 -5.225,-5.188 -2.647,0 -5.032,1.248 -5.107,5.171 -0.013,0.679 -0.029,0.959 -0.029,1.439 v 6.263 h 8.675 v 5.258 h -8.675 v 5.504 H 44.745 V -4.224 C 43.676,1.263 38.843,5.409 33.044,5.409 29.306,5.409 25.97,3.688 23.782,1 V 5.271 H 23.166 C 15.885,5.271 11.952,1.255 11.675,-3.995 10.606,1.327 6.207,5.271 0.65,5.271 c -2.915,0 -5.185,-1.058 -6.962,-2.833 v 8.122 h -5.447 V -3.553 c 0,-1.041 0.029,-2.02 0.039,-2.96 0.072,-6.527 4.644,-11.879 11.72,-11.879"
                           style="fill:#ffffff;fill-opacity:1;fill-rule:nonzero;stroke:none"
                           id="path934-2-4"
                           inkscape:connector-curvature="0" /></g></g></g></g></g></g></g><g
             id="g936-4-1"
             transform="translate(14.17324,84.03937)"
             style="fill:#ffffff" /></g></g></g></g></svg>